<svg preserveAspectRatio="xMidYMid meet" viewBox="12.035250000000001 0.8986486486486487 95.58 100.27027027027027"
     xmlns="http://www.w3.org/2000/svg" version="1.0" style="max-height: 500px" width="95.58"
     height="100.27027027027027">
    <metadata>
        Created by potrace 1.10, written by Peter Selinger 2001-2011
    </metadata>
    <g stroke="current" fill="current" transform="translate(0.000000,100.000000) scale(0.100000,-0.100000)">
        <path d="M604 965 c-21 -6 -49 -17 -62 -24 -21 -11 -24 -10 -29 8 -3 12 -8 21&#10;-12 21 -3 -1 -28 -30 -55 -65 l-48 -65 -95 0 -95 0 4 -55 3 -54 -37 -6 c-21&#10;-4 -38 -8 -38 -9 0 -2 18 -81 40 -176 37 -161 40 -184 40 -322 l0 -148 35 0&#10;c30 0 35 -4 43 -33 10 -38 6 -38 174 4 108 27 131 29 297 29 l181 0 0 50 c0&#10;48 1 51 31 57 18 3 28 11 25 18 -2 7 -10 39 -16 71 -11 57 -10 62 19 123 98&#10;207 55 421 -104 531 -79 54 -206 73 -301 45z m243 -55 c74 -32 117 -84 144&#10;-170 29 -95 24 -212 -12 -285 l-24 -50 -6 215 c-3 118 -6 216 -7 218 -1 1 -22&#10;2 -47 2 -42 0 -46 2 -51 28 l-6 29 -121 -28 c-83 -20 -146 -28 -197 -27 l-75&#10;1 58 10 c55 10 68 19 47 32 -20 13 -9 25 38 40 68 22 192 15 259 -15z m-387&#10;-200 l0 -120 -115 0 -115 0 0 115 0 114 98 4 c53 1 105 4 115 5 15 2 17 -10&#10;17 -118z m240 0 l0 -120 -115 0 -115 0 0 115 0 114 103 4 c56 1 108 4 115 5 9&#10;1 12 -28 12 -118z m163 113 l67 -6 0 -113 0 -114 -104 0 -105 0 -3 120 -3 120&#10;40 0 c22 0 70 -3 108 -7z m-403 -368 l0 -125 -115 0 -115 0 0 125 0 125 115 0&#10;115 0 0 -125z m240 0 l0 -125 -115 0 -115 0 0 125 0 125 115 0 115 0 0 -125z&#10;m230 0 l0 -125 -105 0 -105 0 0 125 0 125 105 0 105 0 0 -125z m-470 -255 l0&#10;-120 -115 0 -115 0 0 120 0 120 115 0 115 0 0 -120z m240 0 l0 -120 -115 0&#10;-115 0 0 120 0 120 115 0 115 0 0 -120z m230 0 l0 -120 -105 0 -105 0 0 120 0&#10;120 105 0 105 0 0 -120z"/>
        <path d="M520 450 l0 -80 58 0 c72 0 87 15 87 81 -1 66 -15 79 -86 79 l-59 0&#10;0 -80z m110 40 c0 -5 0 -13 0 -17 0 -3 -17 -6 -37 -6 -28 0 -39 4 -41 16 -3&#10;14 5 17 37 17 23 0 41 -4 41 -10z m-2 -63 c7 -20 -2 -27 -38 -27 -27 0 -40 4&#10;-40 13 0 8 2 16 4 18 7 6 71 3 74 -4z"/>
        <path d="M1825 966 c-95 -30 -167 -96 -213 -194 -24 -50 -27 -69 -27 -157 1&#10;-104 14 -162 60 -255 20 -42 21 -49 9 -95 -19 -72 -18 -82 16 -94 27 -9 30&#10;-14 30 -55 l0 -46 178 0 c166 -1 185 -3 312 -34 74 -18 138 -32 142 -30 3 3 9&#10;18 13 34 6 27 10 30 45 30 l38 0 4 188 c4 171 7 198 37 316 18 71 29 132 24&#10;137 -4 4 -19 9 -33 11 -23 3 -25 8 -28 56 l-3 52 -92 0 -92 1 -50 64 c-27 36&#10;-53 65 -56 65 -4 0 -9 -9 -12 -21 -5 -19 -7 -19 -29 -6 -65 42 -195 58 -273&#10;33z m221 -47 c50 -13 61 -24 44 -43 -9 -12 1 -17 52 -29 l63 -15 -73 -1 c-61&#10;-1 -212 26 -305 55 -13 4 -20 -2 -28 -25 -10 -28 -15 -31 -55 -31 l-44 0 -1&#10;-187 c-1 -104 -4 -201 -8 -218 -6 -30 -6 -30 -31 25 -22 48 -25 69 -25 160 1&#10;88 4 113 24 158 29 65 97 127 160 146 56 18 167 20 227 5z m-116 -214 l0 -115&#10;-110 0 -110 0 0 115 0 115 110 0 110 0 0 -115z m240 0 l0 -115 -115 0 -115 0&#10;0 115 0 115 115 0 115 0 0 -115z m240 0 l0 -115 -109 0 -110 0 -3 115 -3 115&#10;113 0 112 0 0 -115z m-480 -250 l0 -125 -110 0 -110 0 0 120 0 119 108 4 c59&#10;1 108 4 110 5 1 1 2 -54 2 -123z m480 0 l0 -125 -110 0 -110 0 0 120 0 119&#10;108 4 c59 1 108 4 110 5 1 1 2 -54 2 -123z m-240 -5 l0 -120 -115 0 -115 0 0&#10;120 0 120 115 0 115 0 0 -120z m-240 -250 l0 -120 -110 0 -110 0 0 120 0 120&#10;110 0 110 0 0 -120z m240 0 l0 -120 -115 0 -115 0 0 120 0 120 115 0 115 0 0&#10;-120z m240 0 l0 -120 -112 0 -113 0 3 120 3 120 110 0 109 0 0 -120z"/>
        <path d="M2124 534 c3 -9 6 -29 6 -45 0 -19 5 -29 15 -29 9 0 15 9 15 23 0 39&#10;-12 67 -27 67 -10 0 -13 -6 -9 -16z"/>
        <path d="M1970 450 l0 -80 59 0 c75 0 91 17 83 88 -7 65 -15 72 -83 72 l-59 0&#10;0 -80z m118 33 c2 -9 -10 -13 -42 -13 -35 0 -46 4 -46 16 0 12 9 14 42 12 23&#10;-2 43 -9 46 -15z m-10 -59 c4 -12 -67 -24 -74 -12 -3 4 -3 11 -1 16 7 10 71 7&#10;75 -4z"/>
    </g>
</svg>