<svg preserveAspectRatio="xMidYMid meet"
     viewBox="167.55875999999998 5.726351351351351 83.42999999999999 87.83783783783784"
     xmlns="http://www.w3.org/2000/svg" version="1.0" style="max-height: 500px" width="83.42999999999999"
     height="87.83783783783784">
    <metadata>
        Created by potrace 1.10, written by Peter Selinger 2001-2011
    </metadata>
    <g stroke="current" fill="current" transform="translate(0.000000,100.000000) scale(0.100000,-0.100000)">
        <path d="M220 510 l0 -440 415 0 415 0 0 440 0 440 -415 0 -415 0 0 -440z&#10;m270 288 l0 -138 -130 0 -130 0 0 138 0 137 130 0 130 0 0 -137z m270 0 l0&#10;-138 -130 0 -130 0 0 133 c0 74 2 136 4 138 2 2 61 4 130 4 l126 0 0 -137z&#10;m270 0 l0 -138 -125 0 -125 0 0 138 0 137 125 0 125 0 0 -137z m-540 -285 l0&#10;-138 -130 0 -130 0 0 138 0 137 130 0 130 0 0 -137z m270 0 l0 -138 -130 0&#10;-130 0 0 137 0 138 130 0 130 0 0 -137z m270 0 l0 -138 -125 0 -125 0 0 138 0&#10;137 125 0 125 0 0 -137z m-540 -213 l0 -60 -110 0 c-91 0 -110 -3 -110 -15 0&#10;-12 19 -15 110 -15 l110 0 0 -60 0 -60 -130 0 -130 0 0 135 0 135 130 0 130 0&#10;0 -60z m270 0 l0 -60 -130 0 -130 0 0 60 0 60 130 0 130 0 0 -60z m270 -75 l0&#10;-135 -125 0 -125 0 0 38 c0 20 -3 47 -6 60 -6 21 -3 22 46 22 l52 0 -7 -31 -7&#10;-30 72 36 72 36 -68 35 c-37 19 -69 34 -71 34 -1 0 0 -12 3 -27 5 -28 5 -28&#10;-43 -25 l-48 4 0 59 0 59 128 0 127 0 0 -135z m-270 -75 l0 -60 -130 0 -130 0&#10;0 60 0 60 130 0 130 0 0 -60z"/>
        <path d="M569 605 c0 0 -1 -42 -2 -93 l-2 -92 54 0 c67 0 80 15 81 91 0 85&#10;-12 94 -131 94z m101 -96 l0 -60 -37 3 -38 3 -3 58 -3 57 41 0 40 0 0 -61z"/>
        <path d="M1680 510 l0 -440 415 0 415 0 0 440 0 440 -415 0 -415 0 0 -440z&#10;m270 288 l0 -138 -130 0 -130 0 0 138 0 137 130 0 130 0 0 -137z m270 0 l0&#10;-138 -130 0 -130 0 0 133 c0 74 2 136 4 138 2 2 61 4 130 4 l126 0 0 -137z&#10;m270 0 l0 -138 -125 0 -125 0 0 138 0 137 125 0 125 0 0 -137z m-540 -285 l0&#10;-138 -130 0 -130 0 0 138 0 137 130 0 130 0 0 -137z m270 0 l0 -138 -130 -2&#10;-130 -2 0 140 0 139 130 0 130 0 0 -137z m270 0 l0 -138 -125 0 -125 0 0 138&#10;0 137 125 0 125 0 0 -137z m-540 -213 l0 -60 -49 0 c-46 0 -48 1 -43 26 l5 25&#10;-67 -33 c-36 -18 -66 -35 -65 -38 0 -3 30 -20 66 -37 l65 -33 -6 30 -5 30 49&#10;0 50 0 0 -60 0 -60 -130 0 -130 0 0 135 0 135 130 0 130 0 0 -60z m270 0 l0&#10;-60 -130 0 -130 0 0 60 0 60 130 0 130 0 0 -60z m270 -75 l0 -135 -125 0 -125&#10;0 0 60 0 60 105 0 c87 0 105 3 105 15 0 12 -19 15 -107 15 l-108 0 0 60 0 60&#10;128 0 127 0 0 -135z m-270 -75 l0 -60 -130 0 -130 0 0 60 0 60 130 0 130 0 0&#10;-60z"/>
        <path d="M2000 513 l0 -93 55 0 c66 0 75 12 75 98 0 72 -11 83 -80 86 l-50 1&#10;0 -92z m100 -3 l0 -60 -35 0 -35 0 0 60 0 60 35 0 35 0 0 -60z"/>
        <path d="M2160 571 c0 -29 4 -41 15 -41 10 0 14 10 12 37 -3 52 -27 56 -27 4z"/>
    </g>
</svg>