<svg preserveAspectRatio="xMidYMid meet" viewBox="17.168625000000002 0.858108108108108 91.80000000000001 96.21621621621622" xmlns="http://www.w3.org/2000/svg" version="1.0" style="max-height: 500px" width="91.80000000000001" height="96.21621621621622">
<metadata>
Created by potrace 1.10, written by Peter Selinger 2001-2011
</metadata>
<g stroke="current" fill="current" transform="translate(0.000000,100.000000) scale(0.100000,-0.100000)">
<path d="M240 965 c0 -8 -6 -15 -12 -15 -10 0 -12 -32 -10 -135 2 -74 -4 -243&#10;-12 -377 -20 -307 -20 -338 -1 -338 9 0 12 -6 9 -15 -5 -13 21 -15 197 -15&#10;112 0 283 -7 379 -15 222 -19 230 -19 230 0 0 8 7 15 16 15 15 0 16 13 10 123&#10;-6 108 7 396 29 660 5 56 4 67 -9 67 -9 0 -16 7 -16 15 0 13 -28 15 -187 15&#10;-104 0 -269 7 -368 15 -234 19 -255 19 -255 0z m183 -10 c85 -7 89 -8 83 -28&#10;-3 -12 -6 -42 -6 -67 -1 -42 -3 -47 -45 -72 -24 -15 -57 -45 -72 -67 -21 -31&#10;-33 -40 -48 -36 -11 3 -37 5 -59 5 l-39 0 8 133 c4 72 9 136 12 140 3 5 21 6&#10;42 3 20 -3 76 -8 124 -11z m271 -21 l98 -6 -6 -45 c-3 -25 -6 -56 -6 -68 l0&#10;-22 -40 19 c-49 25 -147 34 -191 19 -18 -6 -33 -10 -34 -9 -1 2 0 31 3 66 l5&#10;63 36 -5 c20 -3 80 -8 135 -12z m304 -20 l64 -6 -7 -136 c-4 -76 -8 -137 -9&#10;-138 0 -1 -31 1 -67 4 -65 4 -65 5 -93 48 -15 24 -42 56 -60 72 -32 27 -33 28&#10;-28 100 l4 73 67 -6 c36 -3 95 -8 129 -11z m-278 -160 c25 -12 63 -41 85 -63&#10;l39 -41 -32 0 c-28 0 -32 4 -33 28 l-2 27 -4 -28 c-3 -20 -9 -27 -21 -23 -9 3&#10;-70 8 -134 12 l-118 6 6 42 c8 51 14 57 61 66 52 9 100 1 153 -26z m-228 -45&#10;c-3 -30 -8 -39 -19 -35 -8 3 -24 6 -36 6 -19 0 -18 3 13 35 19 19 37 35 40 35&#10;3 0 4 -18 2 -41z m-176 -39 l31 0 -19 -57 c-15 -42 -19 -77 -16 -140 l3 -83&#10;-48 0 -49 0 7 113 c9 167 12 180 38 173 12 -3 36 -6 53 -6z m170 -54 c-3 -22&#10;-8 -85 -12 -138 l-6 -98 -49 0 c-44 0 -49 2 -55 26 -12 48 2 177 23 219 20 39&#10;23 41 63 37 l41 -4 -5 -42z m197 28 l89 -6 -7 -86 c-13 -186 -16 -203 -34&#10;-198 -9 3 -69 8 -134 12 l-118 7 5 26 c3 14 8 79 12 144 l6 117 47 -5 c25 -2&#10;86 -7 134 -11z m186 -53 c26 -61 26 -66 2 -77 -16 -8 -13 -15 35 -71 l53 -62&#10;6 67 c4 37 9 75 11 85 4 12 0 17 -13 17 -12 0 -22 12 -30 37 -6 21 -11 39 -9&#10;40 1 1 28 -1 60 -4 l58 -6 -7 -141 c-4 -78 -8 -141 -9 -142 0 0 -59 4 -130 10&#10;l-129 9 7 96 c3 53 6 117 6 144 0 47 0 47 34 47 31 0 35 -4 55 -49z m-547&#10;-227 c3 -2 9 -18 13 -34 7 -30 19 -37 43 -22 10 7 10 15 2 37 -10 27 -10 28&#10;21 21 17 -3 40 -6 51 -6 16 0 18 -6 14 -47 -3 -27 -8 -87 -12 -134 l-6 -87&#10;-36 4 c-20 2 -77 6 -125 10 l-88 6 6 91 c3 51 8 112 11 136 l6 43 46 -7 c26&#10;-4 50 -9 54 -11z m350 -20 l77 -6 -6 -112 c-9 -167 6 -153 -151 -142 -116 7&#10;-132 10 -128 25 3 9 8 69 12 134 l7 119 56 -6 c31 -3 91 -8 133 -12z m268 -19&#10;l85 -6 -8 -132 c-4 -72 -9 -131 -10 -132 -1 -1 -60 3 -131 8 l-129 10 7 90 c3&#10;50 6 110 6 134 l0 45 48 -6 c26 -3 85 -8 132 -11z"/>
<path d="M560 510 c0 -93 1 -100 20 -100 17 0 20 7 20 40 0 40 0 40 40 40 33&#10;0 40 3 40 20 0 17 -7 20 -40 20 -33 0 -40 3 -40 20 0 17 7 20 50 20 43 0 50 3&#10;50 20 0 18 -7 20 -70 20 l-70 0 0 -100z"/>
<path d="M2245 964 c-82 -7 -239 -13 -347 -13 -169 -1 -198 -3 -198 -16 0 -8&#10;-6 -15 -13 -15 -10 0 -8 -55 6 -267 9 -148 16 -339 15 -426 -2 -120 0 -157 10&#10;-157 6 0 12 -7 12 -15 0 -18 5 -18 235 0 99 8 269 15 378 15 168 0 197 2 197&#10;15 0 8 7 15 16 15 13 0 14 11 9 68 -16 196 -25 395 -25 578 0 175 -2 204 -15&#10;204 -8 0 -15 7 -15 15 0 18 -45 18 -265 -1z m259 -91 c4 -54 8 -117 11 -139&#10;l4 -42 -62 -4 c-36 -3 -64 -1 -66 5 -8 21 -74 87 -107 108 -33 20 -34 23 -34&#10;84 l0 63 88 7 c48 3 96 7 107 9 55 9 53 12 59 -91z m-270 31 c11 -84 11 -84&#10;-31 -72 -51 14 -140 5 -190 -20 l-41 -19 -4 66 c-2 36 -3 67 -3 68 0 1 52 6&#10;115 11 63 5 122 10 131 11 12 1 18 -11 23 -45z m-280 -44 l7 -71 -44 -43 c-25&#10;-24 -52 -57 -61 -74 -14 -28 -20 -30 -78 -34 -35 -2 -64 -3 -66 -2 -5 3 -23&#10;266 -19 271 3 2 49 8 103 12 170 14 150 21 158 -59z m274 -91 c18 -7 22 -16&#10;22 -53 l0 -44 -117 -7 c-65 -3 -126 -9 -135 -11 -14 -4 -18 1 -20 28 l-1 33&#10;-4 -32 c-4 -27 -9 -33 -29 -33 -34 0 -30 12 15 53 85 76 178 99 269 66z m86&#10;-58 c23 -25 21 -28 -19 -33 -28 -3 -30 -1 -33 35 -3 34 -1 37 15 29 10 -6 27&#10;-20 37 -31z m209 -138 c4 -58 7 -123 7 -145 l0 -38 -46 0 -46 0 7 48 c7 54 -9&#10;161 -31 204 l-14 27 43 4 c23 2 49 4 58 5 13 2 17 -15 22 -105z m-159 57 c27&#10;-69 38 -133 31 -192 l-7 -58 -52 0 -53 0 -9 140 -9 139 35 4 c19 2 38 4 41 5&#10;4 1 14 -16 23 -38z m-110 -32 c3 -35 8 -99 11 -144 l6 -81 -133 -9 c-73 -6&#10;-134 -10 -135 -9 -2 1 -21 279 -19 282 1 1 53 6 116 11 63 5 123 10 132 11 13&#10;1 17 -11 22 -61z m-279 -65 c3 -60 8 -124 11 -144 l5 -36 -130 -9 -131 -9 -4&#10;40 c-3 22 -8 85 -11 141 l-6 101 57 6 c32 3 60 4 62 2 9 -9 -24 -75 -38 -75&#10;-14 0 -14 -10 -6 -84 l9 -84 52 62 c45 52 50 62 36 70 -9 5 -17 10 -19 11 -4&#10;4 29 88 41 103 5 6 22 12 37 12 l28 0 7 -107z m565 -190 c0 -21 3 -81 6 -134&#10;l7 -97 -89 -6 c-49 -4 -105 -9 -125 -11 l-36 -5 -9 134 -9 134 45 5 c25 3 46&#10;4 48 2 2 -2 -2 -13 -8 -25 -10 -18 -9 -24 1 -31 25 -16 37 -9 49 25 11 36 22&#10;41 93 45 25 1 27 -2 27 -36z m-266 -60 c4 -43 9 -103 12 -134 l5 -57 -133 -8&#10;-133 -9 -7 60 c-3 33 -8 92 -11 132 l-4 71 86 7 c47 3 95 7 106 9 74 12 73 13&#10;79 -71z m-280 -50 c4 -60 9 -120 11 -134 l4 -26 -127 -10 c-70 -5 -130 -7&#10;-133 -4 -4 3 -10 63 -14 133 l-7 126 74 6 c40 3 89 8 108 9 86 9 77 19 84&#10;-100z"/>
<path d="M2010 510 c0 -93 1 -100 20 -100 17 0 20 7 20 40 0 40 0 40 40 40 33&#10;0 40 3 40 20 0 17 -7 20 -40 20 -33 0 -40 3 -40 20 0 17 7 20 50 20 43 0 50 3&#10;50 20 0 18 -7 20 -70 20 l-70 0 0 -100z"/>
<path d="M2198 570 c5 -44 32 -58 32 -16 0 33 -10 56 -24 56 -7 0 -10 -14 -8&#10;-40z"/>
</g>
</svg>