<svg preserveAspectRatio="xMidYMid meet" viewBox="21.70125 4.8040540540540535 83.42999999999999 89.1891891891892" xmlns="http://www.w3.org/2000/svg" version="1.0" style="max-height: 500px" width="83.42999999999999" height="89.1891891891892">
<metadata>
Created by potrace 1.10, written by Peter Selinger 2001-2011
</metadata>
<g stroke="current" fill="current" transform="translate(0.000000,100.000000) scale(0.100000,-0.100000)">
<path d="M220 510 l0 -440 415 0 415 0 0 440 0 440 -415 0 -415 0 0 -440z&#10;m270 288 l0 -138 -60 0 -60 0 0 115 c0 98 -2 115 -16 115 -14 0 -15 -15 -12&#10;-115 l3 -115 -57 0 -58 0 0 138 0 137 130 0 130 0 0 -137z m270 0 l0 -138&#10;-130 0 -130 0 0 133 c0 74 2 136 4 138 2 2 61 4 130 4 l126 0 0 -137z m270 0&#10;l0 -138 -125 0 -125 0 0 138 0 137 125 0 125 0 0 -137z m-687 -285 l-2 -138&#10;-56 0 -55 0 0 138 0 137 58 0 57 0 -2 -137z m147 -1 l0 -137 -60 0 -60 0 0&#10;137 0 138 60 0 60 0 0 -138z m270 0 l0 -137 -130 0 -130 0 0 137 0 138 130 0&#10;130 0 0 -138z m270 1 l0 -138 -125 0 -125 0 0 138 0 137 125 0 125 0 0 -137z&#10;m-680 -204 c0 -51 0 -51 -29 -46 l-28 6 31 -73 c17 -41 32 -73 34 -71 2 1 19&#10;35 37 75 l35 72 -30 -7 -30 -7 0 51 0 51 60 0 60 0 0 -135 0 -135 -130 0 -130&#10;0 0 135 0 135 60 0 60 0 0 -51z m410 -84 l0 -135 -130 0 -130 0 0 135 0 135&#10;130 0 130 0 0 -135z m270 0 l0 -135 -124 0 -125 0 -3 135 -3 135 128 0 127 0&#10;0 -135z"/>
<path d="M566 601 c-4 -5 -5 -48 -4 -95 l3 -86 68 0 c61 0 67 2 67 21 0 18 -5&#10;20 -52 17 l-53 -3 -1 75 c-1 68 -13 97 -28 71z"/>
<path d="M1680 510 l0 -440 415 0 415 0 0 440 0 440 -415 0 -415 0 0 -440z&#10;m270 288 l0 -138 -60 0 -60 0 0 51 c0 49 1 51 25 47 14 -3 25 -2 25 2 0 4 -14&#10;38 -31 75 l-32 67 -24 -58 c-14 -33 -29 -63 -34 -68 -17 -18 -9 -26 21 -19&#10;l30 6 0 -52 0 -51 -60 0 -60 0 0 138 0 137 130 0 130 0 0 -137z m270 0 l0&#10;-138 -130 0 -130 0 0 133 c0 74 2 136 4 138 2 2 61 4 130 4 l126 0 0 -137z&#10;m270 0 l0 -138 -125 0 -125 0 0 138 0 137 125 0 125 0 0 -137z m-689 -288 l0&#10;-135 -55 0 -56 -1 0 139 0 138 56 -3 55 -3 0 -135z m149 2 l0 -137 -60 -1 -60&#10;-1 0 139 0 138 60 0 60 0 0 -138z m270 1 l0 -138 -130 -1 -130 0 0 138 0 138&#10;130 0 130 0 0 -137z m270 0 l0 -138 -125 0 -125 0 0 138 0 137 125 0 125 0 0&#10;-137z m-688 -268 c-3 -100 -2 -115 12 -115 14 0 16 17 16 115 l0 115 60 0 60&#10;0 0 -135 0 -135 -130 0 -130 0 0 135 0 135 58 0 57 0 -3 -115z m418 -20 l0&#10;-135 -130 0 -130 0 0 135 0 135 130 0 130 0 0 -135z m270 0 l0 -135 -124 0&#10;-125 0 -3 135 -3 135 128 0 127 0 0 -135z"/>
<path d="M2019 606 c-2 -2 -3 -45 -1 -95 l3 -91 65 0 c58 0 64 2 64 21 0 18&#10;-5 20 -52 17 l-53 -3 -1 74 c0 65 -9 93 -25 77z"/>
<path d="M2140 570 c0 -29 4 -40 15 -40 11 0 15 11 15 40 0 29 -4 40 -15 40&#10;-11 0 -15 -11 -15 -40z"/>
</g>
</svg>