<svg preserveAspectRatio="xMidYMid meet" viewBox="168.09875999999997 5.45945945945946 83.42999999999999 88.10810810810811" xmlns="http://www.w3.org/2000/svg" version="1.0" style="max-height: 500px" width="83.42999999999999" height="88.10810810810811">
<metadata>
Created by potrace 1.10, written by Peter Selinger 2001-2011
</metadata>
<g stroke="current" fill="current" transform="translate(0.000000,100.000000) scale(0.100000,-0.100000)">
<path d="M220 510 l0 -440 415 0 415 0 0 440 0 440 -415 0 -415 0 0 -440z&#10;m270 288 l0 -138 -130 0 -130 0 0 138 0 137 130 0 130 0 0 -137z m270 0 l0&#10;-138 -130 0 -130 0 0 133 c0 74 2 136 4 138 2 2 61 4 130 4 l126 0 0 -137z&#10;m270 0 l0 -138 -55 0 -55 0 0 51 c0 50 1 51 25 46 14 -2 24 -1 23 2 -2 4 -16&#10;38 -33 75 l-29 68 -33 -72 c-18 -40 -33 -74 -33 -75 0 -1 11 0 25 3 24 4 25 2&#10;25 -47 l0 -51 -55 0 -55 0 0 138 0 137 125 0 125 0 0 -137z m-540 -285 l0&#10;-138 -130 0 -130 0 0 138 0 137 130 0 130 0 0 -137z m270 0 l0 -138 -130 0&#10;-130 0 0 138 0 137 130 0 130 0 0 -137z m130 -2 l0 -138 -55 1 -55 0 0 138 0&#10;138 55 0 55 0 0 -139z m140 1 l0 -138 -55 -2 -55 -2 0 140 0 140 55 0 55 0 0&#10;-138z m-540 -287 l0 -135 -130 0 -130 0 0 135 0 135 130 0 130 0 0 -135z m270&#10;0 l0 -135 -130 0 -130 0 0 135 0 135 130 0 130 0 0 -135z m130 20 c0 -96 3&#10;-115 15 -115 12 0 15 19 15 115 l0 115 55 0 55 0 0 -135 0 -135 -124 0 -125 0&#10;-3 135 -3 135 58 0 57 0 0 -115z"/>
<path d="M570 605 c-1 0 -2 -43 -3 -95 -2 -78 1 -95 13 -95 11 0 14 9 12 38&#10;-5 51 19 50 54 -3 15 -22 33 -40 40 -40 20 0 17 8 -13 44 l-26 31 26 3 c26 3&#10;27 6 27 60 l0 57 -65 0 c-36 0 -65 0 -65 0z m100 -55 c0 -17 -7 -20 -40 -20&#10;-33 0 -40 3 -40 20 0 17 7 20 40 20 33 0 40 -3 40 -20z"/>
<path d="M1680 510 l0 -440 415 0 415 0 0 440 0 440 -415 0 -415 0 0 -440z&#10;m270 288 l0 -138 -130 0 -130 0 0 138 0 137 130 0 130 0 0 -137z m270 0 l0&#10;-138 -130 0 -130 0 0 133 c0 74 2 136 4 138 2 2 61 4 130 4 l126 0 0 -137z&#10;m270 0 l0 -138 -55 0 -55 0 0 115 c0 96 -3 115 -15 115 -12 0 -15 -19 -15&#10;-115 l0 -115 -55 0 -55 0 0 138 0 137 125 0 125 0 0 -137z m-540 -285 l0 -138&#10;-130 0 -130 0 0 138 0 137 130 0 130 0 0 -137z m270 0 l0 -138 -130 0 -130 0&#10;0 138 0 137 130 0 130 0 0 -137z m130 -1 l0 -138 -55 0 -55 1 0 138 0 137 55&#10;0 55 0 0 -138z m140 1 l0 -138 -55 -1 -55 0 0 138 0 138 55 0 55 0 0 -137z&#10;m-540 -288 l0 -135 -130 0 -130 0 0 135 0 135 130 0 130 0 0 -135z m270 0 l0&#10;-135 -130 0 -130 0 0 135 0 135 130 0 130 0 0 -135z m130 84 c0 -50 -1 -51&#10;-25 -45 -14 4 -25 5 -25 3 0 -3 15 -36 33 -75 l33 -71 29 66 c17 37 32 71 33&#10;75 2 5 -8 6 -22 2 -25 -6 -26 -5 -26 45 l0 51 55 0 55 0 0 -135 0 -135 -124 0&#10;-125 0 -3 135 -3 135 58 0 57 0 0 -51z"/>
<path d="M2000 507 c0 -75 3 -98 13 -94 6 2 12 20 12 40 0 29 4 37 18 37 9 0&#10;17 -4 17 -8 0 -15 58 -77 65 -70 4 4 -4 23 -19 43 l-27 35 25 0 c25 0 26 3 26&#10;58 l0 57 -65 0 -65 0 0 -98z m108 41 c3 -15 -4 -18 -41 -18 -41 0 -45 2 -40&#10;21 5 16 12 19 42 17 25 -2 37 -8 39 -20z"/>
<path d="M2160 571 c0 -29 4 -41 15 -41 10 0 14 10 12 37 -3 52 -27 56 -27 4z"/>
</g>
</svg>