<svg preserveAspectRatio="xMidYMid meet" viewBox="167.50125 4.702702702702703 83.42999999999999 89.1891891891892"
     xmlns="http://www.w3.org/2000/svg" version="1.0" style="max-height: 500px" width="83.42999999999999"
     height="89.1891891891892">

    <g stroke="current" fill="current" transform="translate(0.000000,100.000000) scale(0.100000,-0.100000)">
        <path d="M220 510 l0 -440 410 0 410 0 0 440 0 440 -410 0 -410 0 0 -440z&#10;m270 364 l0 -65 -47 3 c-46 3 -48 4 -45 31 l4 28 -66 -33 c-36 -18 -66 -35&#10;-66 -38 0 -3 30 -20 66 -38 l67 -33 -5 25 c-5 25 -3 26 43 26 l49 0 0 -60 0&#10;-60 -130 0 -130 0 0 140 0 140 130 0 130 0 0 -66z m270 1 l0 -65 -130 0 -130&#10;0 0 65 0 65 130 0 130 0 0 -65z m270 -75 l0 -141 -127 3 -128 3 -3 57 -3 57&#10;107 3 c73 2 109 7 111 15 3 9 -24 13 -104 15 l-108 3 -3 49 c-5 78 -8 76 133&#10;76 l125 0 0 -140z m-270 -80 l0 -60 -130 0 -130 0 0 60 0 60 130 0 130 0 0&#10;-60z m-270 -210 l0 -140 -130 0 -130 0 0 140 0 140 130 0 130 0 0 -140z m270&#10;0 l0 -140 -130 0 -130 0 0 140 0 140 130 0 130 0 0 -140z m270 0 l0 -141 -127&#10;3 -128 3 -3 124 c-1 69 0 131 2 138 4 10 37 13 131 13 l125 0 0 -140z m-540&#10;-290 l0 -140 -130 0 -130 0 0 140 0 140 130 0 130 0 0 -140z m270 0 l0 -140&#10;-130 0 -130 0 0 140 0 140 130 0 130 0 0 -140z m270 0 l0 -141 -127 3 -128 3&#10;-3 138 -3 137 131 0 130 0 0 -140z"/>
        <path d="M570 510 l0 -90 65 0 65 0 0 90 c0 73 -3 90 -15 90 -12 0 -15 -14&#10;-15 -70 l0 -70 -40 0 -40 0 0 70 c0 40 -4 70 -10 70 -6 0 -10 -37 -10 -90z"/>
        <path d="M1680 510 l0 -440 410 0 410 0 0 440 0 440 -410 0 -410 0 0 -440z&#10;m270 365 l0 -65 -111 0 c-84 0 -110 -3 -107 -12 3 -9 37 -14 111 -16 l107 -3&#10;0 -59 0 -60 -130 0 -130 0 0 140 0 140 130 0 130 0 0 -65z m270 0 l0 -65 -130&#10;0 -130 0 0 65 0 65 130 0 130 0 0 -65z m270 -75 l0 -140 -130 0 -130 0 0 60 0&#10;60 51 0 c50 0 51 -1 45 -25 l-6 -25 65 32 c36 18 65 35 65 38 0 3 -29 20 -65&#10;38 l-64 32 6 -31 6 -30 -49 3 -49 3 -3 49 c-5 78 -8 76 133 76 l125 0 0 -140z&#10;m-270 -80 l0 -60 -130 0 -130 0 0 60 0 60 130 0 130 0 0 -60z m-270 -210 l0&#10;-140 -130 0 -130 0 0 140 0 140 130 0 130 0 0 -140z m270 0 l0 -140 -130 0&#10;-130 0 0 140 0 140 130 0 130 0 0 -140z m270 0 l0 -141 -127 3 -128 3 -3 124&#10;c-1 69 0 131 2 138 4 10 37 13 131 13 l125 0 0 -140z m-540 -290 l0 -140 -130&#10;0 -130 0 0 140 0 140 130 0 130 0 0 -140z m270 0 l0 -140 -130 0 -130 0 0 140&#10;0 140 130 0 130 0 0 -140z m270 0 l0 -141 -127 3 -128 3 -3 138 -3 137 131 0&#10;130 0 0 -140z"/>
        <path d="M2000 510 l0 -90 65 0 65 0 0 90 c0 73 -3 90 -15 90 -12 0 -15 -14&#10;-15 -70 l0 -70 -35 0 -35 0 0 70 c0 56 -3 70 -15 70 -12 0 -15 -17 -15 -90z"/>
        <path d="M2160 565 c0 -19 5 -35 10 -35 6 0 10 16 10 35 0 19 -4 35 -10 35 -5&#10;0 -10 -16 -10 -35z"/>
    </g>
</svg>